<?xml version="1.0" encoding="iso-8859-1"?>
<!-- Generator: Adobe Illustrator 19.0.0, SVG Export Plug-In . SVG Version: 6.00 Build 0)  -->
<svg version="1.1" id="Layer_1" xmlns="http://www.w3.org/2000/svg" xmlns:xlink="http://www.w3.org/1999/xlink" x="0px" y="0px"
	 viewBox="0 0 511.999 511.999" style="enable-background:new 0 0 511.999 511.999;" xml:space="preserve">
<path style="fill:#C8AF9B;" d="M503.999,248c0,128.129-111.032,239.999-247.999,239.999S8.002,376.129,8.002,248
	S119.034,24.001,256,24.001S503.999,119.871,503.999,248z"/>
<g>
	<path style="fill:#AA968C;" d="M258,22.002c-136.966,0-247.999,95.869-247.999,223.999c0,24.631,4.138,48.648,11.74,71.398
		C47.26,351.688,87.973,374,134.001,374C187.894,374,234.6,343.506,258,298.87C281.4,343.507,328.107,374,382,374
		c46.028,0,86.743-22.312,112.259-56.602c7.602-22.75,11.74-46.767,11.74-71.398C505.999,117.871,394.966,22.002,258,22.002z"/>
	<path style="fill:#AA968C;" d="M352.154,397.999c-34,0-51.436-48-94.152-48s-60.154,48-94.153,48
		c-15.255,0-28.793-5.85-39.787-25.2C134.928,437.031,190.677,485.998,258,485.998s123.072-48.967,133.939-113.199
		C380.947,392.149,367.409,397.999,352.154,397.999z"/>
</g>
<path style="fill:#464655;" d="M269.95,284.518c-7.672,10.741-20.227,10.741-27.899,0l-12.101-16.94
	c-7.672-10.742-3.15-19.53,10.05-19.53h32c13.2,0,17.723,8.788,10.05,19.53L269.95,284.518z"/>
<path d="M128.001,176c-13.233,0-24,10.767-24,24c0,13.234,10.767,24,24,24s24-10.766,24-24C152.001,186.767,141.235,176,128.001,176
	z"/>
<path d="M384,176c-13.233,0-24,10.767-24,24c0,13.234,10.767,24,24,24s24-10.766,24-24C407.999,186.767,397.233,176,384,176z"/>
<path d="M505.798,312.205l-2.713-0.626c5.912-20.755,8.914-42.032,8.914-63.579c0-63.791-26.748-122.751-75.316-166.021
	C388.929,39.433,324.761,16.001,256,16.001S123.073,39.433,75.317,81.979C26.75,125.248,0.002,184.209,0.002,248
	c0,21.546,3.002,42.823,8.914,63.579l-2.713,0.626c-4.305,0.994-6.99,5.289-5.996,9.594c0.854,3.7,4.146,6.203,7.788,6.203
	c0.596,0,1.201-0.067,1.806-0.207l4.028-0.929c1.92,5.345,4.024,10.652,6.34,15.913c0.925,2.101,1.886,4.184,2.867,6.255
	l-9.697,3.422c-4.167,1.471-6.352,6.04-4.881,10.207c1.16,3.286,4.247,5.339,7.544,5.339c0.883,0,1.782-0.147,2.663-0.458
	l11.751-4.147c4.81,8.659,10.136,17.029,15.959,25.089l-25.813,12.292c-3.989,1.899-5.683,6.673-3.783,10.663
	c1.371,2.878,4.238,4.562,7.228,4.562c1.153,0,2.324-0.25,3.434-0.779l28.949-13.786c5.815,7.046,12.026,13.833,18.649,20.325
	c48.847,47.873,113.113,74.237,180.961,74.237s132.114-26.365,180.961-74.237c6.624-6.492,12.834-13.279,18.649-20.325
	l28.949,13.786c1.11,0.529,2.281,0.779,3.434,0.779c2.989,0,5.857-1.684,7.228-4.562c1.9-3.989,0.206-8.763-3.783-10.663
	l-25.813-12.292c5.823-8.061,11.149-16.43,15.959-25.089l11.751,4.147c0.881,0.311,1.779,0.458,2.663,0.458
	c3.297,0,6.384-2.054,7.544-5.339c1.471-4.167-0.715-8.736-4.881-10.207l-9.697-3.422c0.981-2.072,1.942-4.154,2.867-6.255
	c2.316-5.26,4.42-10.568,6.34-15.913l4.028,0.929c0.605,0.14,1.21,0.207,1.806,0.207c3.641,0,6.934-2.503,7.788-6.203
	C512.788,317.493,510.103,313.198,505.798,312.205z M256,479.998c-73.309,0-140.203-33.739-184.637-85.691l47.074-22.417
	c0.082,0.941,0.323,1.883,0.757,2.784C130.156,397.41,145.117,408,166.277,408c18.364,0,31.832-12.213,44.856-24.024
	C224.73,371.646,237.572,360,255.999,360s31.27,11.646,44.867,23.976C313.891,395.787,327.359,408,345.722,408
	c21.16,0,36.121-10.589,47.083-33.326c0.435-0.9,0.676-1.843,0.757-2.784l47.074,22.417
	C396.203,446.261,329.309,479.998,256,479.998z M263.44,279.868c-2.167,3.035-4.81,4.706-7.44,4.706c-2.63,0-5.272-1.671-7.44-4.706
	l-12.101-16.94c-2.411-3.375-2.317-5.252-2.198-5.482c0.118-0.229,1.591-1.397,5.739-1.397h32c4.147,0,5.621,1.168,5.739,1.397
	c0.119,0.23,0.212,2.108-2.198,5.482L263.44,279.868z M473.813,343.685l-111.15-39.229c-4.166-1.47-8.736,0.715-10.207,4.882
	c-1.471,4.166,0.715,8.735,4.881,10.206l108.932,38.447c-4.654,8.118-9.793,15.958-15.384,23.476l-127.446-60.689
	c-3.988-1.898-8.763-0.206-10.662,3.783c-1.9,3.989-0.206,8.763,3.783,10.663l63.484,30.23c-0.661,0.639-1.229,1.396-1.651,2.272
	C368.08,389.117,356.09,392,345.722,392c-12.189,0-22.347-9.21-34.108-19.876c-12.901-11.699-27.335-24.774-47.615-27.571v-45.474
	c4.765-1.807,9.095-5.201,12.459-9.912l12.101-16.94c5.46-7.644,6.701-15.7,3.406-22.104c-3.295-6.403-10.573-10.076-19.966-10.076
	h-32c-9.393,0-16.67,3.673-19.966,10.076c-3.295,6.404-2.054,14.46,3.406,22.104l12.101,16.94c3.365,4.711,7.694,8.105,12.459,9.912
	v45.474c-20.279,2.797-34.713,15.872-47.615,27.571C188.623,382.79,178.466,392,166.277,392c-10.368,0-22.357-2.884-32.671-24.274
	c-0.422-0.876-0.99-1.633-1.651-2.272l63.484-30.23c3.989-1.9,5.683-6.673,3.783-10.663c-1.899-3.989-6.674-5.683-10.662-3.783
	L61.115,381.466c-5.59-7.518-10.73-15.358-15.384-23.476l108.932-38.447c4.167-1.471,6.352-6.04,4.881-10.206
	c-1.47-4.167-6.04-6.352-10.207-4.882l-111.149,39.23c-3.221-6.659-6.119-13.479-8.68-20.438l84.292-19.453
	c4.305-0.993,6.99-5.289,5.996-9.594c-0.994-4.305-5.292-6.991-9.594-5.996l-85.691,19.774c-5.529-19.213-8.51-39.33-8.51-59.979
	C16.002,126.878,121.421,32.001,256,32.001S495.999,126.878,495.999,248c0,20.65-2.98,40.767-8.51,59.979l-85.69-19.773
	c-4.306-0.993-8.601,1.69-9.594,5.996c-0.994,4.305,1.691,8.601,5.996,9.594l84.292,19.453
	C479.932,330.206,477.034,337.026,473.813,343.685z"/>
<path d="M284.73,385.372c-8.369-5.656-16.806-8.682-25.726-9.228c-0.486-0.092-0.986-0.145-1.499-0.145h-1.41
	c-0.513,0-1.013,0.053-1.499,0.145c-8.919,0.544-17.356,3.571-25.726,9.228c-3.661,2.474-4.623,7.447-2.149,11.107
	c2.475,3.662,7.447,4.623,11.108,2.148c6.408-4.33,12.44-6.42,18.97-6.567c6.53,0.147,12.563,2.238,18.971,6.567
	c1.373,0.929,2.931,1.373,4.472,1.373c2.568,0,5.09-1.234,6.636-3.521C289.353,392.818,288.391,387.845,284.73,385.372z"/>
<g>
</g>
<g>
</g>
<g>
</g>
<g>
</g>
<g>
</g>
<g>
</g>
<g>
</g>
<g>
</g>
<g>
</g>
<g>
</g>
<g>
</g>
<g>
</g>
<g>
</g>
<g>
</g>
<g>
</g>
</svg>
